<?xml version="1.0" standalone="no"?>
<!DOCTYPE svg PUBLIC "-//W3C//DTD SVG 20010904//EN"
 "http://www.w3.org/TR/2001/REC-SVG-20010904/DTD/svg10.dtd">
<svg version="1.0" xmlns="http://www.w3.org/2000/svg"
 width="806.000000pt" height="806.000000pt" viewBox="0 0 806.000000 806.000000"
 preserveAspectRatio="xMidYMid meet">
<metadata>
Created by potrace 1.11, written by Peter Selinger 2001-2013
</metadata>
<g transform="translate(0.000000,806.000000) scale(0.100000,-0.100000)"
fill="#000000" stroke="none">
<path d="M4004 7690 c-27 -27 -38 -44 -42 -60 -2 -8 -8 -17 -13 -18 -5 -2 -7
-8 -3 -13 3 -5 0 -9 -5 -9 -6 0 -11 -6 -11 -14 0 -7 -7 -19 -15 -26 -8 -7 -15
-21 -15 -32 0 -12 -4 -17 -12 -12 -7 5 -9 2 -6 -8 4 -8 -2 -21 -12 -28 -10 -7
-16 -20 -12 -28 3 -10 1 -13 -6 -8 -11 6 -14 0 -11 -20 0 -4 -4 -10 -9 -13 -6
-3 -12 -13 -14 -21 -2 -8 -10 -22 -18 -30 -8 -8 -16 -22 -18 -30 -2 -8 -9 -18
-15 -22 -7 -4 -8 -8 -3 -8 5 0 3 -6 -3 -13 -6 -8 -7 -18 -3 -22 4 -5 2 -5 -4
-2 -10 6 -22 -13 -78 -121 -11 -20 -26 -43 -33 -50 -7 -7 -13 -22 -13 -33 0
-11 -4 -18 -9 -15 -7 5 -25 -35 -18 -41 1 -1 -7 -8 -17 -16 -10 -8 -16 -18
-13 -24 3 -5 -3 -16 -14 -23 -10 -8 -19 -22 -19 -30 0 -9 -8 -25 -18 -36 -9
-10 -26 -38 -37 -61 -11 -24 -23 -43 -27 -43 -5 0 -8 -6 -8 -14 0 -8 -6 -21
-14 -29 -8 -8 -21 -30 -30 -51 -8 -20 -20 -36 -25 -36 -6 0 -11 -9 -11 -20 0
-11 -6 -23 -14 -26 -8 -3 -13 -11 -10 -17 2 -7 -6 -23 -19 -37 -13 -14 -23
-33 -21 -43 1 -9 -2 -15 -7 -11 -5 3 -9 -2 -9 -10 0 -8 -8 -20 -17 -25 -10 -6
-14 -11 -9 -11 5 0 3 -7 -4 -15 -7 -8 -9 -15 -4 -15 4 0 0 -6 -10 -13 -9 -7
-18 -22 -19 -34 0 -12 -4 -20 -8 -17 -7 4 -35 -56 -31 -68 1 -5 -4 -7 -11 -5
-6 1 -11 -4 -10 -10 2 -7 -1 -13 -6 -13 -9 0 -27 -40 -22 -49 2 -2 -4 -8 -13
-13 -9 -5 -16 -18 -16 -29 0 -11 -7 -22 -15 -25 -8 -4 -12 -10 -9 -15 3 -5 0
-9 -6 -9 -6 0 -9 -4 -6 -9 3 -5 -1 -12 -10 -15 -8 -3 -12 -10 -9 -16 3 -5 1
-10 -4 -10 -6 0 -11 -5 -11 -10 0 -6 -11 -28 -25 -50 -14 -22 -22 -40 -18 -40
5 0 0 -5 -9 -11 -10 -5 -18 -14 -18 -19 0 -5 -13 -32 -30 -60 -16 -27 -26 -50
-23 -50 4 0 -2 -7 -13 -15 -10 -8 -15 -15 -11 -15 5 0 1 -7 -7 -16 -9 -8 -16
-22 -16 -30 0 -8 -4 -14 -10 -14 -5 0 -10 -7 -10 -15 0 -8 -5 -15 -11 -15 -6
0 -9 -6 -6 -14 3 -8 -1 -17 -9 -20 -9 -3 -12 -10 -9 -16 3 -5 2 -10 -4 -10 -6
0 -13 -11 -17 -25 -3 -14 -10 -23 -14 -20 -4 3 -11 -2 -14 -11 -4 -10 -2 -13
7 -8 6 4 2 -4 -9 -17 -12 -13 -25 -34 -29 -46 -3 -13 -11 -23 -16 -23 -5 0 -8
-6 -7 -12 2 -7 -2 -12 -9 -11 -7 2 -10 -3 -7 -10 2 -7 -4 -22 -14 -33 -10 -10
-17 -25 -14 -32 2 -6 0 -12 -6 -12 -9 0 -37 -50 -34 -62 1 -5 -5 -8 -14 -8 -9
0 -12 -5 -8 -12 4 -6 -1 -17 -10 -24 -10 -7 -17 -15 -17 -18 3 -21 0 -26 -11
-20 -6 4 -8 3 -4 -4 3 -6 2 -13 -4 -17 -6 -4 -8 -11 -5 -16 4 -5 1 -9 -6 -9
-7 0 -9 -3 -6 -7 4 -3 -2 -12 -12 -20 -12 -8 -18 -22 -16 -33 2 -11 0 -18 -4
-16 -4 3 -23 -24 -42 -59 -19 -36 -38 -65 -42 -65 -5 0 -6 -4 -3 -9 3 -5 -1
-14 -9 -21 -8 -7 -12 -16 -9 -21 3 -5 0 -9 -6 -9 -7 0 -9 -7 -6 -16 3 -9 2
-12 -4 -9 -6 4 -15 -7 -21 -24 -6 -17 -14 -31 -19 -31 -8 0 -23 -38 -21 -52 1
-5 -3 -8 -9 -8 -5 0 -10 -7 -10 -15 0 -8 -3 -15 -8 -15 -4 0 -15 -18 -25 -40
-9 -22 -21 -40 -27 -40 -5 0 -10 -9 -10 -20 0 -11 -5 -20 -12 -20 -6 0 -9 -3
-5 -6 3 -4 -1 -13 -9 -21 -8 -8 -12 -19 -9 -24 4 -5 2 -9 -3 -9 -5 0 -17 -16
-26 -35 -9 -19 -21 -35 -26 -35 -6 0 -9 -3 -8 -7 4 -14 -13 -53 -23 -53 -5 0
-9 -6 -9 -13 0 -8 -9 -24 -20 -37 -11 -13 -20 -32 -20 -42 0 -11 -4 -17 -9
-14 -8 5 -25 -29 -22 -46 1 -5 -4 -8 -10 -8 -5 0 -7 -4 -4 -10 3 -5 -1 -10 -9
-10 -9 0 -13 -6 -10 -13 3 -8 -2 -20 -11 -27 -8 -7 -15 -19 -15 -26 0 -8 -5
-14 -11 -14 -6 0 -8 -7 -5 -16 3 -8 2 -12 -4 -9 -5 3 -12 -6 -16 -20 -3 -14
-10 -25 -14 -25 -9 0 -34 -60 -31 -75 2 -5 0 -7 -4 -3 -10 9 -34 -14 -28 -28
2 -6 -3 -17 -11 -24 -9 -7 -13 -16 -10 -21 3 -5 0 -9 -5 -9 -6 0 -11 -7 -11
-15 0 -8 -4 -15 -10 -15 -5 0 -10 -5 -10 -11 0 -6 -9 -24 -21 -41 -12 -16 -18
-32 -15 -35 3 -3 -3 -12 -14 -20 -11 -8 -20 -20 -20 -27 0 -8 -7 -19 -15 -26
-9 -7 -14 -19 -11 -27 3 -8 1 -11 -4 -8 -9 5 -11 1 -10 -20 1 -3 -6 -13 -15
-22 -9 -8 -14 -22 -11 -30 3 -8 1 -11 -4 -8 -6 3 -13 -2 -17 -12 -3 -10 -12
-25 -19 -33 -7 -8 -14 -22 -16 -30 -3 -14 -7 -20 -35 -54 -6 -7 -10 -16 -7
-19 2 -2 -2 -10 -11 -17 -8 -7 -15 -16 -15 -21 0 -5 -11 -27 -25 -49 -14 -21
-26 -45 -27 -52 -2 -7 -10 -20 -18 -28 -8 -8 -16 -22 -18 -30 -2 -8 -8 -17
-13 -18 -5 -2 -7 -8 -3 -13 3 -5 0 -9 -5 -9 -6 0 -11 -6 -11 -13 0 -7 -9 -23
-19 -34 -11 -12 -17 -23 -14 -26 3 -4 -2 -13 -11 -22 -9 -9 -13 -21 -10 -27 4
-7 2 -8 -4 -4 -7 4 -14 -3 -18 -19 -3 -14 -10 -25 -16 -25 -5 0 -6 -4 -3 -10
3 -5 1 -10 -5 -10 -7 0 -9 -7 -6 -17 4 -10 4 -14 0 -10 -7 7 -94 -136 -94
-154 0 -5 -3 -9 -8 -9 -8 0 -23 -26 -42 -72 -7 -16 -16 -28 -22 -28 -5 0 -6
-4 -3 -10 3 -5 1 -10 -4 -10 -6 0 -11 -8 -11 -19 0 -10 -12 -31 -27 -46 -16
-16 -21 -25 -13 -21 8 4 6 0 -4 -8 -11 -9 -16 -16 -12 -16 4 0 -2 -13 -13 -29
-11 -15 -18 -31 -14 -35 3 -3 1 -6 -5 -6 -6 0 -19 -17 -28 -37 -10 -21 -28
-52 -40 -69 -13 -17 -20 -34 -17 -38 3 -3 -1 -8 -10 -12 -9 -3 -14 -11 -11
-19 3 -7 -2 -15 -11 -19 -9 -3 -13 -10 -10 -16 3 -5 1 -10 -5 -10 -6 0 -8 -5
-5 -10 3 -5 2 -10 -4 -10 -5 0 -13 -10 -17 -22 -3 -12 -13 -28 -20 -36 -8 -7
-12 -18 -9 -23 4 -5 1 -9 -5 -9 -6 0 -16 -13 -21 -30 -6 -16 -15 -30 -21 -30
-5 0 -6 -4 -3 -10 3 -5 2 -10 -4 -10 -6 0 -13 -11 -17 -25 -3 -14 -10 -25 -15
-25 -5 0 -9 -9 -9 -19 0 -11 -4 -21 -9 -23 -5 -1 -27 -37 -49 -80 -22 -42 -43
-74 -45 -71 -3 2 -10 -12 -17 -31 -6 -20 -16 -36 -21 -36 -5 0 -9 -5 -9 -12 0
-6 -8 -20 -17 -31 -10 -11 -13 -17 -6 -14 6 4 -6 -19 -28 -52 -21 -32 -39 -64
-39 -70 0 -6 -5 -11 -11 -11 -5 0 -7 -5 -4 -10 3 -6 -1 -13 -9 -16 -9 -3 -13
-10 -10 -15 3 -5 0 -9 -6 -9 -6 0 -8 -5 -5 -10 3 -5 1 -10 -5 -10 -6 0 -9 -4
-6 -9 3 -5 -1 -11 -9 -15 -8 -3 -15 -14 -15 -25 0 -11 -6 -26 -13 -33 -19 -20
-48 -68 -42 -68 4 0 -1 -7 -9 -16 -9 -8 -14 -19 -12 -23 3 -4 -4 -13 -14 -21
-10 -8 -17 -17 -14 -22 3 -4 0 -8 -7 -8 -7 0 -9 -3 -6 -6 3 -4 -3 -18 -13 -32
-11 -13 -20 -31 -20 -38 0 -8 -4 -14 -8 -14 -5 0 -14 -16 -22 -35 -8 -19 -17
-35 -22 -35 -4 0 -8 -7 -8 -15 0 -8 -5 -15 -12 -15 -6 0 -8 -3 -5 -6 4 -4 -2
-19 -13 -34 -11 -15 -17 -30 -13 -34 3 -3 1 -6 -6 -6 -11 0 -28 -33 -29 -54 0
-5 -7 -13 -16 -18 -9 -5 -16 -14 -16 -20 0 -6 -12 -26 -26 -45 -14 -19 -23
-37 -20 -40 3 -4 -3 -13 -14 -20 -11 -8 -18 -19 -15 -24 4 -5 1 -9 -4 -9 -6 0
-11 -7 -11 -15 0 -8 -4 -15 -9 -15 -6 0 -8 -9 -6 -20 2 -11 0 -18 -5 -15 -5 3
-12 -5 -16 -17 -4 -13 -2 -24 5 -26 6 -2 9 -7 6 -12 -7 -11 31 -23 45 -15 5 3
10 1 10 -5 0 -8 6 -8 20 0 14 8 20 8 20 0 0 -8 6 -8 20 0 14 8 20 8 20 0 0 -8
6 -8 20 0 14 8 20 8 20 0 0 -8 6 -8 20 0 14 8 20 8 20 0 0 -8 6 -8 20 0 14 8
20 8 20 0 0 -8 6 -8 20 0 15 8 20 8 20 -2 0 -9 3 -9 10 2 5 8 10 10 10 4 0
-12 41 -11 59 1 6 3 11 1 11 -5 0 -6 5 -8 13 -3 17 11 37 13 37 3 0 -8 43 -5
59 5 6 3 11 1 11 -5 0 -6 5 -8 13 -3 17 11 37 13 37 3 0 -8 43 -5 59 5 6 3 11
1 11 -5 0 -6 5 -8 12 -3 18 11 38 13 38 3 0 -8 43 -5 59 5 6 3 11 1 11 -5 0
-6 5 -8 13 -3 17 11 37 13 37 3 0 -8 43 -5 59 5 6 3 11 1 11 -5 0 -6 5 -8 13
-3 18 11 37 13 37 3 0 -5 14 -5 30 0 19 5 30 5 30 -1 0 -6 8 -5 20 1 14 8 20
8 20 0 0 -8 6 -8 20 0 14 8 20 8 20 0 0 -8 6 -8 20 0 14 8 20 8 20 0 0 -8 6
-8 20 0 14 8 20 8 20 0 0 -8 6 -8 20 0 14 8 20 8 20 0 0 -8 6 -8 20 0 14 8 20
8 20 0 0 -7 6 -8 19 0 14 7 20 7 23 -2 3 -8 10 -8 26 1 15 8 22 8 22 1 0 -6 5
-8 13 -3 17 11 37 13 37 3 0 -8 43 -5 59 5 6 3 11 1 11 -5 0 -6 5 -8 13 -3 17
11 37 13 37 3 0 -8 43 -5 59 5 6 3 11 1 11 -6 0 -9 3 -9 14 0 10 8 16 9 21 1
4 -7 12 -7 26 0 13 8 19 7 19 0 0 -6 5 -8 12 -3 18 11 38 13 38 3 0 -8 43 -5
59 5 6 3 11 1 11 -5 0 -6 5 -8 13 -3 17 11 37 13 37 3 0 -8 43 -5 59 5 6 3 11
1 11 -5 0 -6 5 -8 12 -4 17 11 58 11 58 1 0 -4 9 -3 20 3 14 8 20 8 20 0 0 -8
6 -8 20 0 14 8 20 8 20 0 0 -8 6 -8 20 0 14 8 20 8 20 0 0 -8 6 -8 20 0 14 8
20 8 20 0 0 -8 6 -8 20 0 14 8 20 8 20 0 0 -8 6 -8 20 0 14 8 20 8 20 0 0 -8
6 -8 20 0 15 8 20 8 20 -2 0 -9 3 -9 10 2 5 8 10 10 10 4 0 -12 41 -11 59 1 6
3 11 1 11 -5 0 -6 5 -8 13 -3 17 11 37 13 37 3 0 -8 43 -5 59 5 6 3 11 1 11
-5 0 -6 5 -8 12 -3 18 11 38 13 38 3 0 -8 43 -5 59 5 6 3 11 1 11 -5 0 -6 5
-8 13 -3 17 11 37 13 37 3 0 -8 43 -5 59 5 6 3 11 1 11 -5 0 -6 5 -8 13 -3 17
11 37 13 37 3 0 -8 43 -5 59 5 6 3 11 1 11 -5 0 -6 5 -8 13 -3 18 11 37 13 37
3 0 -5 14 -5 30 0 19 5 30 5 30 -1 0 -6 8 -5 20 1 14 8 20 8 20 0 0 -8 6 -8
20 0 14 8 20 8 20 0 0 -8 6 -8 20 0 14 8 20 8 20 0 0 -8 6 -8 20 0 14 8 20 8
20 0 0 -8 6 -8 20 0 14 8 20 8 20 0 0 -8 6 -8 20 0 14 8 20 8 20 0 0 -7 6 -8
19 0 14 7 20 7 23 -2 3 -8 10 -8 26 1 15 8 22 8 22 1 0 -6 5 -8 13 -3 17 11
37 13 37 3 0 -8 43 -5 59 5 6 3 11 1 11 -5 0 -6 5 -8 13 -3 17 11 37 13 37 3
0 -8 43 -5 59 5 6 3 11 1 11 -6 0 -9 3 -9 14 0 10 8 16 9 21 1 4 -7 12 -7 26
0 13 8 19 7 19 0 0 -6 5 -8 13 -3 17 11 37 13 37 3 0 -8 43 -5 59 5 6 3 11 1
11 -5 0 -6 5 -8 13 -3 17 11 37 13 37 3 0 -8 43 -5 59 5 6 3 11 1 11 -5 0 -6
5 -8 12 -4 17 11 58 11 58 1 0 -4 9 -3 20 3 14 8 20 8 20 0 0 -8 6 -8 20 0 14
8 20 8 20 0 0 -8 6 -8 20 0 14 8 20 8 20 0 0 -8 6 -8 20 0 14 8 20 8 20 0 0
-8 6 -8 20 0 14 8 20 8 20 0 0 -8 6 -8 20 0 14 8 20 8 20 0 0 -8 6 -8 20 0 15
8 20 8 20 -2 0 -9 3 -9 10 2 5 8 10 10 10 4 0 -12 41 -11 59 1 6 3 11 1 11 -5
0 -6 5 -8 13 -3 17 11 37 13 37 3 0 -8 43 -5 59 5 6 3 11 1 11 -5 0 -6 5 -8
13 -3 17 11 37 13 37 3 0 -8 43 -5 59 5 6 3 11 1 11 -5 0 -6 5 -8 13 -3 17 11
37 13 37 3 0 -8 43 -5 59 5 6 3 11 1 11 -5 0 -6 5 -8 13 -3 17 11 37 13 37 3
0 -8 43 -5 59 5 6 3 11 1 11 -5 0 -6 5 -8 13 -3 18 11 37 13 37 3 0 -5 14 -5
30 0 19 5 30 5 30 -1 0 -6 8 -5 20 1 14 8 20 8 20 0 0 -8 6 -8 20 0 14 8 20 8
20 0 0 -8 6 -8 20 0 14 8 20 8 20 0 0 -8 6 -8 20 0 14 8 20 8 20 0 0 -8 6 -8
20 0 14 8 20 8 20 0 0 -8 6 -8 20 0 14 8 20 8 20 0 0 -8 6 -8 20 0 14 8 20 8
20 0 0 -8 6 -8 20 0 14 8 20 8 20 0 0 -8 6 -8 20 0 14 8 20 8 20 0 0 -8 6 -8
20 0 14 8 20 8 20 0 0 -8 6 -8 20 0 14 8 20 8 20 0 0 -8 6 -8 20 0 14 8 20 8
20 0 0 -8 6 -8 20 0 14 8 20 8 20 0 0 -8 6 -8 20 0 14 8 20 8 20 0 0 -8 6 -8
20 0 15 8 20 8 20 -2 0 -9 3 -9 10 2 5 8 10 10 10 4 0 -12 41 -11 59 1 6 3 11
1 11 -5 0 -6 5 -8 13 -3 17 11 37 13 37 3 0 -8 43 -5 59 5 6 3 11 1 11 -5 0
-6 5 -8 13 -3 17 11 37 13 37 3 0 -8 43 -5 59 5 6 3 11 1 11 -5 0 -6 5 -8 13
-3 17 11 37 13 37 3 0 -8 43 -5 59 5 6 3 11 1 11 -5 0 -6 5 -8 13 -3 17 11 37
13 37 3 0 -8 43 -5 59 5 6 3 11 1 11 -5 0 -6 5 -8 13 -3 18 11 37 13 37 3 0
-5 13 -5 30 0 19 5 30 5 30 -1 0 -6 8 -5 20 1 14 8 20 8 20 0 0 -8 6 -8 20 0
14 8 20 8 20 0 0 -8 6 -8 20 0 14 8 20 8 20 0 0 -8 6 -8 20 0 14 8 20 8 20 0
0 -8 6 -8 20 0 14 8 20 8 20 0 0 -8 6 -8 20 0 14 8 20 8 20 0 0 -7 6 -8 19 0
14 7 20 7 23 -2 3 -8 10 -8 26 1 15 8 22 8 22 1 0 -6 5 -8 13 -3 17 11 37 13
37 3 0 -8 43 -5 59 5 6 3 11 1 11 -5 0 -6 5 -8 12 -3 18 11 38 13 38 3 0 -8
43 -5 59 5 6 3 11 1 11 -6 0 -9 3 -9 14 0 10 8 16 9 21 1 4 -7 12 -7 26 0 13
8 19 7 19 0 0 -6 5 -8 13 -3 17 11 37 13 37 3 0 -8 43 -5 59 5 6 3 11 1 11 -5
0 -6 5 -8 13 -3 17 11 37 13 37 3 0 -8 43 -5 59 5 6 3 11 1 11 -5 0 -6 5 -8
12 -4 17 11 58 11 58 1 0 -4 9 -3 20 3 14 8 20 8 20 0 0 -8 6 -8 20 0 14 8 20
8 20 0 0 -8 6 -8 20 0 14 8 20 8 20 0 0 -8 6 -8 20 0 14 8 20 8 20 0 0 -8 6
-8 20 0 14 8 20 8 20 0 0 -8 6 -8 20 0 14 8 20 8 20 0 0 -8 6 -8 20 0 15 8 20
8 20 -2 0 -9 3 -9 10 2 5 8 10 10 10 4 0 -12 41 -11 59 1 6 3 11 1 11 -5 0 -6
5 -8 13 -3 17 11 37 13 37 3 0 -8 43 -5 59 5 6 3 11 1 11 -5 0 -6 5 -8 13 -3
17 11 37 13 37 3 0 -8 43 -5 59 5 6 3 11 1 11 -5 0 -6 5 -8 13 -3 16 10 37 13
37 4 0 -8 253 -7 267 2 6 4 15 2 18 -4 11 -16 35 25 33 55 -1 14 -5 26 -8 26
-4 0 -14 16 -23 35 -9 19 -22 35 -29 35 -6 0 -9 3 -5 6 3 4 -1 21 -10 38 -10
17 -17 34 -18 37 0 3 -8 13 -18 23 -9 10 -15 22 -12 27 4 5 1 9 -4 9 -6 0 -11
7 -11 16 0 8 -4 12 -10 9 -5 -3 -10 3 -10 14 0 12 -4 21 -8 21 -4 0 -14 16
-21 35 -7 19 -16 35 -21 35 -7 0 -30 51 -29 67 1 3 -4 9 -9 12 -10 6 -43 58
-64 101 -7 14 -16 27 -19 30 -4 3 -9 12 -11 20 -2 8 -10 22 -18 30 -8 8 -16
22 -18 30 -2 8 -9 18 -15 22 -7 4 -8 8 -3 8 5 0 2 8 -6 18 -8 9 -21 32 -29 50
-8 17 -17 32 -21 32 -5 0 -8 7 -8 15 0 8 -3 15 -7 15 -5 0 -13 10 -18 23 -15
31 -59 111 -65 117 -3 3 -14 23 -26 45 -12 22 -26 39 -32 38 -7 -2 -12 2 -12
7 0 6 6 10 13 10 8 0 9 3 1 8 -12 8 -38 52 -39 67 -1 6 -6 9 -13 8 -7 -2 -11
0 -10 5 1 4 -5 21 -12 37 -7 17 -12 34 -11 38 1 5 -2 6 -7 3 -4 -2 -14 4 -21
16 -10 16 -10 19 1 12 7 -4 5 2 -4 13 -10 11 -18 24 -18 29 0 6 -9 20 -20 32
-12 12 -18 22 -15 22 4 0 -1 7 -10 16 -9 9 -14 23 -11 31 3 8 2 11 -3 8 -5 -3
-12 4 -16 15 -4 11 -11 18 -16 15 -5 -3 -6 1 -3 9 4 10 1 16 -7 16 -7 0 -9 3
-6 6 4 4 -3 20 -14 35 -11 16 -18 29 -15 29 3 0 -3 9 -14 20 -11 11 -20 27
-20 35 0 8 -5 15 -11 15 -5 0 -7 5 -4 10 3 6 1 10 -4 10 -6 0 -11 7 -11 16 0
9 -5 12 -12 8 -6 -4 -8 -3 -5 3 3 5 -19 52 -50 104 -31 52 -56 99 -56 106 0 7
-7 15 -14 17 -8 3 -11 10 -8 16 3 5 1 10 -5 10 -6 0 -8 5 -5 10 3 6 -1 10 -9
10 -9 0 -15 3 -14 8 4 14 -13 52 -23 52 -6 0 -7 5 -4 10 3 6 1 10 -4 10 -6 0
-11 7 -11 15 0 8 -4 15 -10 15 -5 0 -10 8 -10 18 0 10 -9 28 -20 40 -11 12
-20 28 -20 37 0 8 -4 15 -9 15 -10 0 -37 60 -33 73 1 5 -2 6 -7 3 -8 -6 -26
21 -23 36 1 3 -5 12 -13 18 -8 7 -15 19 -15 26 0 8 -4 14 -8 14 -4 0 -14 16
-21 35 -7 19 -16 35 -21 35 -5 0 -14 16 -20 35 -7 21 -16 32 -22 29 -6 -4 -8
-3 -5 3 3 5 -5 26 -18 46 -14 20 -25 41 -25 46 0 6 -5 11 -11 11 -5 0 -8 4 -4
9 3 6 -3 18 -14 28 -11 10 -22 30 -26 46 -4 15 -11 27 -16 27 -5 0 -9 7 -9 15
0 9 -6 18 -14 21 -8 3 -12 12 -9 20 3 8 0 14 -6 14 -6 0 -11 7 -11 15 0 8 -3
15 -8 15 -4 0 -13 14 -20 30 -8 17 -18 28 -23 25 -5 -4 -6 1 -3 10 4 10 -3 26
-17 41 -13 14 -23 27 -21 30 7 12 0 24 -15 24 -9 0 -14 3 -10 6 3 4 0 19 -9
35 -8 16 -15 32 -15 36 0 5 -7 12 -15 16 -8 5 -12 12 -9 18 4 5 1 9 -4 9 -6 0
-11 7 -11 15 0 8 -5 15 -11 15 -5 0 -8 4 -5 9 3 5 -1 14 -9 21 -8 7 -15 18
-15 25 0 7 -7 18 -15 25 -8 7 -12 16 -9 21 3 5 0 9 -5 9 -6 0 -11 7 -11 15 0
7 -7 18 -16 23 -9 5 -15 13 -15 18 2 18 -11 44 -20 44 -6 0 -7 5 -4 10 3 5 1
10 -4 10 -6 0 -11 7 -11 15 0 8 -5 15 -11 15 -5 0 -7 5 -4 10 3 6 0 13 -9 16
-9 3 -12 12 -9 21 4 9 2 14 -3 10 -5 -3 -14 6 -21 19 -8 18 -8 23 0 18 7 -3 5
0 -4 8 -16 14 -33 48 -31 61 1 4 -5 7 -13 7 -8 0 -15 9 -15 20 0 11 -4 20 -10
20 -5 0 -9 6 -7 13 1 6 -4 11 -11 9 -7 -1 -12 3 -11 10 3 17 -22 68 -33 68 -4
0 -7 3 -7 8 3 19 -2 33 -11 27 -6 -3 -7 1 -4 9 3 9 1 16 -5 16 -6 0 -11 7 -11
15 0 9 -10 20 -22 25 -13 5 -17 9 -10 9 10 1 10 6 1 24 -7 12 -15 24 -18 27
-3 3 -15 22 -26 43 -11 20 -23 37 -28 37 -4 0 -6 4 -2 9 3 5 -2 16 -10 24 -8
9 -15 23 -15 32 0 9 -4 13 -10 10 -6 -3 -7 1 -4 9 4 11 0 16 -12 16 -14 0 -16
2 -6 9 11 7 11 9 -2 14 -9 4 -16 13 -16 22 0 8 -5 15 -11 15 -5 0 -7 5 -4 10
3 6 1 10 -5 10 -6 0 -8 5 -5 10 3 6 1 10 -4 10 -6 0 -11 9 -11 21 0 11 -4 18
-8 15 -5 -3 -15 11 -22 30 -8 19 -20 40 -27 46 -7 5 -10 14 -7 19 3 5 1 9 -4
9 -5 0 -17 18 -27 40 -10 22 -22 40 -27 40 -5 0 -6 5 -3 10 3 6 1 10 -4 10 -6
0 -11 7 -11 15 0 8 -5 15 -11 15 -5 0 -8 4 -4 9 3 5 -2 16 -10 24 -8 9 -15 20
-15 26 0 6 -5 11 -11 11 -5 0 -7 5 -4 10 3 6 3 10 -2 10 -9 0 -39 61 -35 73 1
4 -5 7 -14 7 -8 0 -13 4 -9 9 3 5 0 15 -7 23 -23 25 -48 75 -40 83 4 5 2 5 -4
2 -6 -3 -17 9 -24 28 -8 19 -17 35 -22 35 -4 0 -8 5 -8 11 0 6 -17 39 -37 73
-21 33 -37 64 -35 69 1 4 -3 7 -10 7 -6 0 -9 3 -5 6 3 3 -3 15 -13 27 -11 11
-17 24 -14 29 3 4 -2 11 -10 14 -9 3 -13 10 -10 15 3 5 0 9 -6 9 -6 0 -8 5 -5
10 3 6 1 10 -4 10 -6 0 -11 6 -11 13 0 7 -9 23 -20 35 -11 12 -21 24 -21 27 0
19 -27 64 -34 58 -4 -5 -6 0 -2 9 3 10 0 19 -9 22 -9 3 -13 10 -10 15 3 5 -1
14 -9 21 -8 7 -15 18 -15 25 0 7 -7 15 -15 19 -8 3 -12 12 -9 21 3 8 1 15 -5
15 -6 0 -11 7 -11 15 0 9 -7 18 -15 21 -8 4 -12 10 -9 15 3 5 0 9 -6 9 -7 0
-9 7 -6 15 3 9 -1 18 -8 21 -8 3 -17 17 -20 30 -4 15 -11 22 -18 18 -8 -5 -9
-2 -5 9 3 10 3 17 -1 17 -4 0 -15 18 -25 40 -11 26 -22 38 -29 34 -7 -5 -9 -2
-6 7 3 9 -3 26 -13 40 -10 13 -19 30 -19 37 0 6 -5 12 -11 12 -5 0 -7 5 -4 10
3 6 1 10 -5 10 -6 0 -8 5 -5 10 3 6 2 10 -3 10 -6 0 -15 14 -21 31 -6 17 -15
28 -21 24 -6 -3 -7 0 -4 9 3 9 1 16 -6 16 -6 0 -9 4 -5 9 3 5 0 13 -5 16 -6 4
-15 18 -21 32 -6 16 -13 22 -21 17 -10 -6 -10 -4 0 8 10 13 10 17 -3 22 -8 3
-15 12 -15 19 0 8 -9 24 -20 37 -11 12 -17 26 -15 30 3 4 -2 10 -10 14 -8 3
-15 12 -15 21 0 8 -4 15 -10 15 -5 0 -7 6 -4 14 3 7 -2 16 -10 19 -9 4 -16 16
-16 27 0 11 -7 23 -15 26 -8 4 -15 15 -15 25 0 10 -9 24 -19 31 -10 6 -17 17
-15 23 3 7 -2 18 -11 25 -8 7 -15 17 -15 22 0 5 -7 16 -15 25 -8 8 -13 19 -10
24 4 5 1 9 -4 9 -6 0 -11 5 -11 11 0 6 -7 17 -15 26 -8 8 -13 19 -10 24 4 5 3
9 -2 9 -4 0 -19 20 -32 45 -13 25 -28 45 -32 45 -5 0 -6 7 -3 15 4 8 2 15 -3
15 -5 0 -20 21 -33 48 -13 26 -28 50 -34 54 -6 4 -12 11 -12 15 -3 20 -29 73
-36 73 -4 0 -8 7 -8 15 0 8 -4 15 -10 15 -5 0 -10 9 -10 21 0 11 -4 17 -10 14
-5 -3 -10 3 -10 14 0 12 -5 21 -11 21 -5 0 -8 4 -4 9 3 5 -2 16 -10 25 -9 8
-16 19 -15 23 0 4 -6 15 -14 25 -8 9 -12 19 -9 22 4 3 1 6 -6 6 -7 0 -9 5 -6
10 3 6 2 10 -3 10 -6 0 -15 14 -21 30 -5 17 -15 30 -21 30 -6 0 -8 5 -5 10 5
9 -1 12 -21 9 -4 0 -10 4 -13 10 -5 7 -14 4 -27 -9z m148 -4095 c32 -38 61
-95 49 -95 -5 0 -14 13 -19 29 -6 17 -30 51 -54 77 -24 26 -34 41 -22 33 12
-8 32 -27 46 -44z m-316 -296 c20 -22 23 -28 8 -19 -18 11 -50 50 -41 50 2 0
16 -14 33 -31z"/>
</g>
</svg>
